<?xml version="1.0" encoding="utf-8"?>
<!-- Generator: Adobe Illustrator 16.0.0, SVG Export Plug-In . SVG Version: 6.00 Build 0)  -->
<!DOCTYPE svg PUBLIC "-//W3C//DTD SVG 1.1//EN" "http://www.w3.org/Graphics/SVG/1.1/DTD/svg11.dtd">
<svg version="1.1" id="Layer_1" xmlns="http://www.w3.org/2000/svg" xmlns:xlink="http://www.w3.org/1999/xlink" x="0px" y="0px"
	 width="68px" height="68px" viewBox="0 0 68 68" enable-background="new 0 0 68 68" xml:space="preserve">
<g>
	<path fill="#ffffff"  d="M34,0C15.252,0,0,15.252,0,34c0,18.748,15.252,34,34,34c18.748,0,34-15.252,34-34C68,15.252,52.748,0,34,0z M34,64.324
		c-8.33,0-15.884-3.376-21.371-8.831c-2.19-2.179-4.05-4.688-5.498-7.448C4.926,43.844,3.676,39.065,3.676,34
		C3.676,17.279,17.279,3.676,34,3.676c7.932,0,15.159,3.062,20.568,8.064c2.805,2.593,5.121,5.708,6.791,9.188
		c1.899,3.96,2.965,8.394,2.965,13.072C64.324,50.721,50.721,64.324,34,64.324z"/>
	<path fill="#ffffff"  d="M22.378,26.281c1.976,0,3.583,1.516,3.583,3.583h3.676c0-4.135-3.256-7.259-7.259-7.259c-4.003,0-7.259,3.124-7.259,7.259
		h3.675C18.795,27.797,20.403,26.281,22.378,26.281z"/>
	<path fill="#ffffff"  d="M45.621,26.281c1.977,0,3.584,1.516,3.584,3.583h3.675c0-4.135-3.256-7.259-7.259-7.259c-4.002,0-7.259,3.124-7.259,7.259
		h3.676C42.038,27.797,43.646,26.281,45.621,26.281z"/>
	<path fill="#ffffff"  d="M33.935,52.838c7.111,0,13.926-3.637,17.829-9.676l-3.088-1.994c-3.583,5.545-10.139,8.639-16.7,7.881
		c-5.114-0.59-9.844-3.535-12.651-7.881l-3.087,1.994c3.398,5.259,9.124,8.824,15.318,9.539
		C32.35,52.793,33.144,52.838,33.935,52.838z"/>
</g>
</svg>
