<?xml version="1.0" encoding="utf-8"?>
<!-- Generator: Adobe Illustrator 16.0.0, SVG Export Plug-In . SVG Version: 6.00 Build 0)  -->
<!DOCTYPE svg PUBLIC "-//W3C//DTD SVG 1.1//EN" "http://www.w3.org/Graphics/SVG/1.1/DTD/svg11.dtd">
<svg version="1.1" id="Layer_1" xmlns="http://www.w3.org/2000/svg" xmlns:xlink="http://www.w3.org/1999/xlink" x="0px" y="0px"
	 width="68px" height="68px" viewBox="0 0 68 68" enable-background="new 0 0 68 68" xml:space="preserve">
<g>
	<g>
		<g>
			<path fill="#ffffff" d="M66.672,27.426H55.781v-2.812c0-0.733-0.594-1.328-1.328-1.328H25.766c-0.733,0-1.328,0.595-1.328,1.328
				c0,0.734,0.595,1.328,1.328,1.328h27.359v10.183c0,8.944-4.776,17.259-12.486,21.781H15.143
				C7.432,53.384,2.656,45.069,2.656,36.125V25.943h8.898c0.733,0,1.328-0.595,1.328-1.328c0-0.734-0.595-1.328-1.328-1.328H1.328
				C0.595,23.287,0,23.881,0,24.615v11.51c0,5.021,1.349,9.942,3.902,14.235c1.722,2.896,3.956,5.451,6.572,7.546H1.328
				C0.595,57.906,0,58.5,0,59.234C0,64.067,3.933,68,8.766,68h41.438c4.833,0,8.766-3.933,8.766-8.766
				c0-0.734-0.594-1.328-1.328-1.328H45.308c2.408-1.928,4.49-4.248,6.148-6.862h3.75C62.26,51.044,68,45.305,68,38.25v-9.496
				C68,28.021,67.406,27.426,66.672,27.426z M56.168,60.563c-0.608,2.732-3.053,4.781-5.965,4.781H8.766
				c-2.913,0-5.356-2.049-5.964-4.781h11.986h26.206H56.168z M55.781,36.125v-0.73h4.25v2.855c0,2.661-2.165,4.825-4.825,4.825
				h-0.302C55.484,40.817,55.781,38.481,55.781,36.125z M65.344,38.25c0,5.59-4.547,10.138-10.138,10.138h-2.261
				c0.424-0.865,0.803-1.752,1.134-2.656h1.127c4.125,0,7.481-3.355,7.481-7.481v-4.184c0-0.733-0.594-1.328-1.328-1.328h-5.578
				v-2.656h9.563V38.25z"/>
		</g>
	</g>
	<g>
		<g>
			<path fill="#ffffff" d="M29.159,7.35l-0.691-0.868c-1.014-1.273-1.016-3.053-0.003-4.329c0.456-0.575,0.359-1.41-0.214-1.866
				c-0.575-0.457-1.411-0.36-1.866,0.214c-1.786,2.249-1.783,5.389,0.006,7.635l0.691,0.868c1.326,1.664,1.328,3.99,0.005,5.657
				l-0.708,0.892c-0.457,0.574-0.36,1.409,0.215,1.865c0.244,0.193,0.535,0.288,0.825,0.288c0.391,0,0.779-0.171,1.041-0.502
				l0.709-0.891C31.262,13.673,31.259,9.987,29.159,7.35z"/>
		</g>
	</g>
	<g>
		<g>
			<path fill="#ffffff" d="M36.521,10.336l-0.692-0.868c-1.014-1.273-1.015-3.053-0.004-4.329c0.457-0.575,0.36-1.41-0.215-1.866
				c-0.574-0.456-1.409-0.36-1.865,0.215c-1.786,2.25-1.783,5.389,0.006,7.635l0.69,0.868c1.326,1.664,1.329,3.99,0.005,5.657
				l-0.708,0.892c-0.457,0.575-0.36,1.41,0.215,1.867c0.244,0.193,0.536,0.288,0.825,0.288c0.391,0,0.779-0.173,1.042-0.502
				l0.708-0.892C38.624,16.66,38.621,12.973,36.521,10.336z"/>
		</g>
	</g>
	<g>
		<g>
			<path fill="#ffffff" d="M21.797,10.336l-0.69-0.868c-1.015-1.273-1.016-3.053-0.004-4.329c0.456-0.574,0.36-1.41-0.215-1.866
				s-1.41-0.359-1.866,0.215c-1.785,2.25-1.783,5.389,0.006,7.635l0.691,0.868c1.325,1.664,1.328,3.99,0.005,5.657l-0.708,0.892
				c-0.456,0.575-0.36,1.41,0.214,1.867c0.244,0.193,0.536,0.288,0.825,0.288c0.391,0,0.779-0.172,1.042-0.502l0.708-0.892
				C23.901,16.66,23.897,12.973,21.797,10.336z"/>
		</g>
	</g>
	<g>
		<g>
			<path fill="#ffffff" d="M19.959,23.674c-0.248-0.246-0.59-0.389-0.939-0.389c-0.349,0-0.692,0.143-0.939,0.389
				c-0.247,0.249-0.389,0.59-0.389,0.939c0,0.35,0.143,0.693,0.389,0.94c0.247,0.248,0.59,0.388,0.939,0.388
				c0.35,0,0.692-0.14,0.939-0.388c0.248-0.248,0.389-0.59,0.389-0.94C20.348,24.265,20.208,23.922,19.959,23.674z"/>
		</g>
	</g>
	<g>
		<g>
			<path fill="#ffffff" d="M48.078,34.797c-0.734,0-1.328,0.594-1.328,1.328c0,4.93-1.999,9.775-5.486,13.292
				c-0.517,0.521-0.512,1.362,0.009,1.879c0.259,0.257,0.598,0.385,0.936,0.385c0.34,0,0.684-0.131,0.942-0.394
				c3.977-4.011,6.256-9.538,6.256-15.162C49.406,35.391,48.813,34.797,48.078,34.797z"/>
		</g>
	</g>
	<g>
		<g>
			<path fill="#ffffff" d="M39.032,53.022c-0.361-0.639-1.171-0.866-1.81-0.505l-0.03,0.019c-0.64,0.359-0.864,1.168-0.505,1.809
				c0.244,0.432,0.694,0.676,1.158,0.676c0.221,0,0.445-0.056,0.65-0.171l0.031-0.018C39.166,54.472,39.393,53.661,39.032,53.022z"
				/>
		</g>
	</g>
</g>
</svg>
