<?xml version="1.0" encoding="utf-8"?>
<!-- Generator: Adobe Illustrator 16.0.0, SVG Export Plug-In . SVG Version: 6.00 Build 0)  -->
<!DOCTYPE svg PUBLIC "-//W3C//DTD SVG 1.1//EN" "http://www.w3.org/Graphics/SVG/1.1/DTD/svg11.dtd">
<svg version="1.1" id="Layer_1" xmlns="http://www.w3.org/2000/svg" xmlns:xlink="http://www.w3.org/1999/xlink" x="0px" y="0px"
	 width="70px" height="68px" viewBox="0 0 70 68" enable-background="new 0 0 70 68" xml:space="preserve">
<g>
	<path fill="#ffffff" d="M51.774,4.771C51.213,2.053,48.776,0,45.862,0c-0.667,0-1.208,0.534-1.208,1.193
		c0,0.659,0.541,1.192,1.208,1.192c1.995,0,3.62,1.606,3.62,3.58c0,1.973-1.625,3.578-3.62,3.578c-0.667,0-1.208,0.534-1.208,1.193
		s0.541,1.193,1.208,1.193c2.913,0,5.351-2.054,5.912-4.772h15.812v10.737H2.414V7.158h16.897h3.621
		c0.666,0,1.207-0.533,1.207-1.192c0-0.66-0.541-1.194-1.207-1.194H20.74c0.5-1.386,1.827-2.386,3.398-2.386
		c1.997,0,3.621,1.606,3.621,3.58c0,1.973-1.624,3.578-3.621,3.578c-0.666,0-1.207,0.534-1.207,1.193s0.541,1.193,1.207,1.193
		c3.328,0,6.035-2.676,6.035-5.965c0-3.29-2.708-5.965-6.035-5.965c-2.913,0-5.351,2.053-5.913,4.771H0v15.51V68h70V20.281V4.771
		H51.774z M67.586,65.613H2.414V20.281h65.172V65.613z"/>
	<path fill="#ffffff" d="M31.379,2.386c1.996,0,3.621,1.606,3.621,3.58c0,1.973-1.625,3.578-3.621,3.578
		c-0.667,0-1.207,0.534-1.207,1.193s0.54,1.193,1.207,1.193c3.327,0,6.035-2.676,6.035-5.965c0-3.29-2.708-5.965-6.035-5.965
		c-0.667,0-1.207,0.534-1.207,1.193C30.173,1.852,30.713,2.386,31.379,2.386z"/>
	<path fill="#ffffff" d="M38.621,2.386c1.996,0,3.621,1.606,3.621,3.58c0,1.973-1.625,3.578-3.621,3.578
		c-0.667,0-1.207,0.534-1.207,1.193s0.54,1.193,1.207,1.193c3.327,0,6.033-2.676,6.033-5.965c0-3.29-2.706-5.965-6.033-5.965
		c-0.667,0-1.207,0.534-1.207,1.193C37.414,1.852,37.954,2.386,38.621,2.386z"/>
	<path fill="#ffffff" d="M10.862,29.825h26.552c0.666,0,1.207-0.533,1.207-1.192c0-0.66-0.541-1.194-1.207-1.194H10.862
		c-0.667,0-1.207,0.534-1.207,1.194C9.655,29.292,10.196,29.825,10.862,29.825z"/>
	<path fill="#ffffff" d="M59.138,46.526H41.035c-0.667,0-1.208,0.532-1.208,1.192s0.541,1.193,1.208,1.193h18.103
		c0.667,0,1.208-0.533,1.208-1.193S59.805,46.526,59.138,46.526z"/>
	<path fill="#ffffff" d="M10.862,39.368h12.069c0.666,0,1.207-0.533,1.207-1.192c0-0.66-0.541-1.192-1.207-1.192H10.862
		c-0.667,0-1.207,0.532-1.207,1.192C9.655,38.835,10.196,39.368,10.862,39.368z"/>
	<path fill="#ffffff" d="M59.138,56.069H47.069c-0.666,0-1.207,0.534-1.207,1.194c0,0.658,0.541,1.193,1.207,1.193h12.068
		c0.667,0,1.208-0.535,1.208-1.193C60.346,56.604,59.805,56.069,59.138,56.069z"/>
	<path fill="#ffffff" d="M33.793,38.176c0,0.659,0.541,1.192,1.207,1.192h18.104c0.666,0,1.207-0.533,1.207-1.192
		c0-0.66-0.541-1.192-1.207-1.192H35C34.334,36.983,33.793,37.516,33.793,38.176z"/>
	<path fill="#ffffff" d="M29.822,39.022c0.217-0.227,0.351-0.537,0.351-0.847c0-0.313-0.133-0.622-0.351-0.847
		c-0.446-0.441-1.267-0.441-1.713,0c-0.217,0.225-0.351,0.534-0.351,0.847c0,0.31,0.133,0.62,0.351,0.847
		c0.229,0.226,0.543,0.346,0.856,0.346C29.279,39.368,29.593,39.248,29.822,39.022z"/>
	<path fill="#ffffff" d="M15.689,47.719c0,0.66,0.541,1.193,1.207,1.193H35c0.666,0,1.206-0.533,1.206-1.193
		S35.666,46.526,35,46.526H16.896C16.23,46.526,15.689,47.059,15.689,47.719z"/>
	<path fill="#ffffff" d="M10.862,48.912c0.313,0,0.627-0.131,0.857-0.346c0.217-0.228,0.35-0.537,0.35-0.848
		s-0.133-0.621-0.35-0.835c-0.447-0.453-1.267-0.453-1.714-0.012c-0.217,0.226-0.35,0.536-0.35,0.847s0.133,0.62,0.35,0.848
		C10.234,48.781,10.537,48.912,10.862,48.912z"/>
	<path fill="#ffffff" d="M59.138,39.368c0.313,0,0.629-0.12,0.857-0.346c0.229-0.227,0.351-0.537,0.351-0.847
		c0-0.313-0.121-0.622-0.351-0.847c-0.459-0.441-1.268-0.441-1.715,0c-0.217,0.225-0.35,0.534-0.35,0.847
		c0,0.31,0.133,0.62,0.35,0.847C58.511,39.248,58.824,39.368,59.138,39.368z"/>
	<path fill="#ffffff" d="M41.035,56.069H10.862c-0.667,0-1.207,0.534-1.207,1.194c0,0.658,0.541,1.193,1.207,1.193h30.173
		c0.666,0,1.207-0.535,1.207-1.193C42.242,56.604,41.701,56.069,41.035,56.069z"/>
</g>
</svg>
