<?xml version="1.0" encoding="utf-8"?>
<!-- Generator: Adobe Illustrator 16.0.0, SVG Export Plug-In . SVG Version: 6.00 Build 0)  -->
<!DOCTYPE svg PUBLIC "-//W3C//DTD SVG 1.1//EN" "http://www.w3.org/Graphics/SVG/1.1/DTD/svg11.dtd">
<svg version="1.1" id="Layer_1" xmlns="http://www.w3.org/2000/svg" xmlns:xlink="http://www.w3.org/1999/xlink" x="0px" y="0px"
	 width="55px" height="68px" viewBox="0 0 55 68" enable-background="new 0 0 55 68" xml:space="preserve">
<path id="SVGID_1_" fill="#ffffff" d="M40.207,68H1.681C0.754,68,0,67.253,0,66.337V16.768c0-0.552,0.452-0.999,1.008-0.999
	c0.556,0,1.008,0.447,1.008,0.999v49.235h38.191c0.559,0,1.01,0.447,1.01,0.999C41.216,67.555,40.766,68,40.207,68L40.207,68z
	 M53.318,68h-6.051c-0.559,0-1.011-0.445-1.011-0.998c0-0.552,0.452-0.999,1.011-0.999h5.715V10.126l-7.989-8.129H2.016v7.452
	c0,0.55-0.452,0.997-1.008,0.997C0.452,10.446,0,9.999,0,9.449V1.664C0,0.747,0.754,0,1.681,0H45.42c0.271,0,0.533,0.11,0.723,0.303
	l8.572,8.723C54.898,9.212,55,9.462,55,9.72v56.617C55,67.253,54.246,68,53.318,68L53.318,68z M54.92,10.109
	c-0.156,0.37-0.521,0.609-0.928,0.609H45.42c-0.559,0-1.01-0.446-1.01-0.999v-8.72c0-0.406,0.249-0.773,0.63-0.925
	c0.38-0.152,0.815-0.063,1.103,0.229l8.572,8.723C54.997,9.313,55.079,9.739,54.92,10.109L54.92,10.109z M46.43,3.457v5.266h5.174
	L46.43,3.457L46.43,3.457z M32.168,14.143H7.867c-0.927,0-1.681-0.746-1.681-1.664V6.963C6.186,6.046,6.94,5.3,7.867,5.3h24.301
	c0.928,0,1.68,0.746,1.68,1.663v5.516C33.848,13.396,33.096,14.143,32.168,14.143L32.168,14.143z M31.831,7.296H8.203v4.851h23.628
	V7.296L31.831,7.296z M16.452,20.766l-5.109,6.652c-0.169,0.22-0.423,0.36-0.701,0.389c-0.035,0.003-0.069,0.005-0.102,0.005
	c-0.243,0-0.48-0.086-0.665-0.246l-2.151-1.863c-0.419-0.362-0.461-0.994-0.094-1.408c0.367-0.414,1.003-0.456,1.422-0.094
	l1.339,1.158l4.455-5.802c0.337-0.439,0.971-0.524,1.413-0.191C16.703,19.699,16.789,20.324,16.452,20.766L16.452,20.766z
	 M46.611,21.157H21.21c-0.557,0-1.008-0.445-1.008-0.997c0-0.551,0.452-0.998,1.008-0.998h25.401c0.559,0,1.011,0.447,1.011,0.998
	C47.622,20.712,47.17,21.157,46.611,21.157L46.611,21.157z M37.702,24.485H21.21c-0.557,0-1.008-0.447-1.008-0.999
	c0-0.551,0.452-0.997,1.008-0.997h16.492c0.557,0,1.009,0.446,1.009,0.997C38.711,24.038,38.259,24.485,37.702,24.485L37.702,24.485
	z M41.468,27.812H21.21c-0.557,0-1.008-0.447-1.008-0.997c0-0.553,0.452-0.999,1.008-0.999h20.258c0.558,0,1.009,0.446,1.009,0.999
	C42.477,27.364,42.023,27.812,41.468,27.812L41.468,27.812z M16.452,34.339l-5.109,6.652c-0.169,0.222-0.423,0.362-0.701,0.389
	c-0.035,0.005-0.069,0.007-0.102,0.007c-0.243,0-0.48-0.088-0.665-0.248l-2.151-1.863c-0.419-0.36-0.461-0.99-0.094-1.406
	c0.367-0.414,1.003-0.457,1.422-0.094l1.339,1.156l4.455-5.801c0.337-0.439,0.971-0.523,1.413-0.191
	C16.703,33.273,16.789,33.899,16.452,34.339L16.452,34.339z M46.611,34.732H21.21c-0.557,0-1.008-0.447-1.008-1
	c0-0.551,0.452-0.998,1.008-0.998h25.401c0.559,0,1.011,0.447,1.011,0.998C47.622,34.285,47.17,34.732,46.611,34.732L46.611,34.732z
	 M37.702,38.061H21.21c-0.557,0-1.008-0.445-1.008-1c0-0.55,0.452-0.998,1.008-0.998h16.492c0.557,0,1.009,0.448,1.009,0.998
	C38.711,37.613,38.259,38.061,37.702,38.061L37.702,38.061z M41.468,41.387H21.21c-0.557,0-1.008-0.447-1.008-1
	c0-0.55,0.452-0.996,1.008-0.996h20.258c0.558,0,1.009,0.446,1.009,0.996C42.477,40.939,42.023,41.387,41.468,41.387L41.468,41.387z
	 M46.611,48.307H21.21c-0.557,0-1.008-0.447-1.008-0.998c0-0.553,0.452-0.998,1.008-0.998h25.401c0.559,0,1.011,0.445,1.011,0.998
	C47.62,47.859,47.17,48.307,46.611,48.307L46.611,48.307z M37.702,51.633H21.21c-0.557,0-1.008-0.445-1.008-0.997
	s0.452-0.999,1.008-0.999h16.492c0.557,0,1.009,0.447,1.009,0.999S38.259,51.633,37.702,51.633L37.702,51.633z M41.468,54.959H21.21
	c-0.557,0-1.008-0.445-1.008-0.997s0.452-0.999,1.008-0.999h20.258c0.558,0,1.009,0.447,1.009,0.999S42.023,54.959,41.468,54.959
	L41.468,54.959z M14.44,54.959H9.061c-0.928,0-1.681-0.746-1.681-1.664v-5.322c0-0.916,0.753-1.662,1.681-1.662h5.379
	c0.927,0,1.679,0.746,1.679,1.662v5.322C16.119,54.213,15.367,54.959,14.44,54.959L14.44,54.959z M14.103,48.307H9.396v4.656h4.706
	L14.103,48.307L14.103,48.307z"/>
</svg>
